<?xml version="1.0" standalone="no"?>
<!DOCTYPE svg PUBLIC "-//W3C//DTD SVG 20010904//EN"
 "http://www.w3.org/TR/2001/REC-SVG-20010904/DTD/svg10.dtd">
<svg version="1.0" xmlns="http://www.w3.org/2000/svg"
 width="4096.000000pt" height="2160.000000pt" viewBox="0 0 4096.000000 2160.000000"
 preserveAspectRatio="xMidYMid meet">
<metadata>
Created by potrace 1.16, written by Peter Selinger 2001-2019
</metadata>
<g transform="translate(0.000000,2160.000000) scale(0.100000,-0.100000)"
fill="#000000" stroke="none">
<path d="M32940 15869 c-431 -43 -730 -98 -1044 -194 -1202 -365 -2094 -1140
-2499 -2170 -115 -294 -186 -605 -218 -954 -15 -172 -6 -623 16 -781 85 -613
280 -1093 635 -1565 625 -832 1643 -1367 2850 -1499 837 -92 1694 3 2545 281
172 56 251 96 272 137 32 61 44 140 128 845 96 793 95 738 17 748 l-41 5 -52
-103 c-28 -57 -86 -165 -127 -239 -538 -963 -1062 -1374 -1860 -1461 -144 -15
-519 -6 -657 16 -682 109 -1220 431 -1629 975 -353 469 -580 1059 -666 1733
-57 450 -52 1005 15 1447 109 729 404 1374 835 1823 482 503 1108 759 1800
733 372 -13 649 -80 940 -226 538 -270 981 -828 1246 -1565 39 -109 63 -133
117 -116 19 7 38 19 41 27 9 24 -142 1622 -159 1680 -20 70 -60 103 -188 153
-282 110 -686 193 -1252 257 -167 19 -916 28 -1065 13z"/>
<path d="M19855 15769 c-115 -4 -291 -13 -390 -19 -298 -18 -916 -24 -1205
-11 -146 6 -420 14 -608 18 -290 5 -345 4 -353 -8 -13 -21 -11 -95 4 -107 6
-6 77 -13 157 -16 323 -14 495 -86 570 -240 39 -81 58 -157 71 -291 7 -74 9
-1006 7 -2890 l-4 -2780 -21 -92 c-68 -295 -198 -375 -633 -392 l-165 -6 -3
-53 c-5 -79 -1 -81 136 -76 64 2 422 8 794 14 670 11 923 7 1433 -20 675 -37
812 -42 1030 -36 638 16 1136 138 1685 410 582 289 1057 731 1402 1306 278
462 430 944 489 1545 15 155 15 579 0 720 -59 555 -227 1029 -522 1469 -244
365 -529 647 -899 891 -381 251 -732 410 -1160 525 -502 134 -975 171 -1815
139z m875 -239 c499 -45 911 -255 1279 -654 181 -196 308 -382 439 -646 126
-252 213 -482 287 -764 30 -111 32 -127 17 -123 -16 5 -540 253 -1102 522
-124 59 -346 165 -495 235 -148 70 -380 180 -515 245 -250 120 -995 473 -1018
482 -10 4 -12 -72 -10 -377 l3 -382 165 -78 c91 -42 217 -102 280 -132 141
-68 547 -261 1330 -633 1083 -515 1184 -563 1341 -638 l157 -75 7 -186 c4
-103 5 -189 2 -192 -2 -3 -110 45 -238 107 -129 61 -346 164 -484 229 -137 65
-365 173 -505 240 -140 67 -410 195 -600 285 -190 90 -459 217 -598 284 -139
67 -255 121 -258 121 -2 0 -3 -172 -2 -382 l3 -381 525 -249 c289 -137 687
-326 885 -420 198 -94 459 -218 580 -275 121 -58 310 -148 420 -200 110 -52
204 -99 209 -104 12 -11 -6 -130 -45 -309 -126 -570 -369 -1058 -700 -1404
-330 -346 -735 -554 -1229 -631 -144 -23 -481 -30 -666 -16 -387 32 -592 111
-709 275 -50 71 -76 130 -107 241 l-23 80 -3 2660 c-3 2974 -7 2765 68 2920
85 177 214 249 540 299 215 34 555 45 770 26z"/>
<path d="M20740 11622 l0 -379 93 -43 c50 -24 178 -85 282 -135 105 -50 243
-115 307 -145 65 -30 118 -58 118 -61 0 -6 -486 -522 -1102 -1170 -98 -103
-178 -190 -178 -193 0 -3 192 -6 428 -5 l427 1 140 146 c77 81 230 242 340
357 110 115 257 268 326 340 147 153 494 516 627 655 50 54 92 102 92 107 0 4
-190 98 -423 208 -232 109 -501 237 -597 283 -510 245 -866 412 -876 412 -2 0
-4 -170 -4 -378z"/>
<path d="M25320 15760 l-55 -5 -3 -39 c-2 -22 -1 -50 2 -63 6 -21 12 -23 69
-23 109 0 299 -20 386 -41 202 -47 295 -143 344 -354 l22 -90 3 -2795 c2
-1920 -1 -2826 -8 -2895 -30 -289 -117 -420 -310 -470 -98 -25 -263 -45 -386
-45 -93 0 -113 -3 -118 -16 -10 -27 -7 -102 6 -110 15 -9 198 -8 888 4 491 9
854 7 1790 -12 91 -2 175 1 188 5 19 7 22 16 22 57 0 26 -5 53 -12 60 -7 7
-45 12 -98 12 -109 0 -286 17 -368 36 -125 28 -223 97 -270 191 -27 52 -49
158 -62 288 -14 152 -14 5477 0 5630 31 326 118 447 361 504 87 21 272 41 370
41 66 0 79 11 79 65 0 72 19 69 -342 62 -177 -4 -451 -12 -608 -18 -299 -12
-780 -7 -1460 14 -206 7 -400 10 -430 7z"/>
<path d="M1637 15753 c-12 -11 -7 -100 6 -110 6 -6 47 -13 90 -17 323 -28 569
-203 812 -576 34 -52 79 -126 100 -165 l37 -70 -51 -2355 c-37 -1688 -56
-2389 -66 -2475 -74 -618 -409 -1008 -895 -1042 -113 -8 -120 -12 -120 -74 0
-63 9 -67 154 -62 671 20 1262 20 2006 -1 69 -1 133 1 143 6 21 11 24 100 5
115 -7 6 -53 13 -103 16 -395 26 -687 291 -801 727 -44 168 -56 285 -55 545 0
186 71 3536 83 3935 l3 85 66 -125 c84 -159 1898 -3608 2382 -4530 201 -382
375 -705 386 -717 15 -18 30 -23 64 -23 60 0 75 7 94 43 13 26 931 2177 1966
4609 177 416 323 755 325 753 6 -6 242 -4641 242 -4755 0 -245 -64 -392 -202
-461 -100 -50 -316 -88 -505 -89 -91 0 -103 -2 -113 -19 -12 -24 -13 -81 0
-101 10 -17 -2 -17 890 -1 349 6 745 6 1100 0 777 -14 871 -15 882 -8 5 3 8
32 6 65 l-3 59 -150 7 c-408 18 -547 94 -614 338 -21 74 -45 231 -56 365 -22
267 -275 5214 -270 5280 8 105 40 236 76 309 124 251 360 369 782 393 75 4
121 11 128 19 5 7 9 34 7 61 l-3 48 -215 -1 c-1046 -2 -1263 -2 -1390 -1 -131
1 -149 0 -185 -20 -64 -34 -122 -105 -175 -216 -27 -56 -339 -768 -694 -1582
-1314 -3020 -1428 -3280 -1435 -3288 -4 -4 -554 1018 -1222 2270 -668 1253
-1244 2331 -1281 2395 -192 335 -247 406 -343 433 -52 15 -97 16 -528 5 -356
-9 -545 -10 -768 -1 -334 12 -582 14 -592 4z"/>
<path d="M11268 15753 c-37 -10 -32 -110 6 -118 11 -2 82 -7 156 -10 394 -18
547 -110 604 -362 35 -158 37 -317 33 -3088 -4 -2949 -1 -2803 -56 -2958 -41
-118 -124 -197 -242 -231 -82 -24 -270 -46 -390 -46 -86 0 -109 -3 -120 -16
-16 -19 -18 -89 -4 -103 7 -7 893 -11 2510 -12 2764 -3 2543 -8 2578 63 15 30
19 71 23 240 9 404 34 781 75 1138 11 96 23 207 26 246 l6 70 -31 13 c-16 7
-44 11 -62 9 -32 -3 -34 -5 -81 -133 -118 -314 -270 -558 -477 -768 -327 -332
-747 -507 -1337 -557 -194 -16 -747 -13 -823 5 -186 44 -288 154 -338 365 -17
70 -18 170 -21 1424 l-4 1348 563 -5 c343 -3 600 -9 658 -16 221 -28 386 -73
533 -147 120 -60 190 -109 271 -192 84 -85 117 -133 166 -237 47 -99 70 -193
79 -310 l6 -90 65 0 65 0 -3 155 c-1 85 -7 247 -12 360 -11 253 -15 597 -12
1190 3 427 2 456 -15 468 -21 16 -82 9 -95 -10 -4 -7 -8 -32 -8 -56 0 -82 -30
-196 -75 -287 -125 -255 -397 -414 -831 -487 -120 -20 -173 -21 -742 -25
l-612 -5 2 1209 c3 1118 5 1212 21 1268 59 203 179 314 388 363 62 14 130 17
429 17 443 0 605 -19 845 -99 314 -105 561 -294 749 -571 73 -107 172 -315
224 -470 l47 -140 57 0 c31 0 60 3 63 7 12 12 -16 1521 -28 1548 -7 13 -23 30
-37 37 -20 10 -504 13 -2400 12 -1306 -1 -2382 -3 -2392 -6z"/>
<path d="M36655 15748 c-4 -9 -5 -37 -3 -64 l3 -49 180 -11 c422 -27 552 -109
618 -394 l21 -95 4 -2765 c2 -1978 0 -2800 -8 -2888 -38 -422 -159 -520 -665
-541 l-150 -6 -3 -61 c-3 -57 -1 -62 20 -66 26 -4 136 -3 882 11 364 6 722 6
1105 -1 837 -15 871 -15 881 2 15 24 11 87 -6 104 -12 13 -38 16 -118 16 -117
0 -319 23 -390 45 -138 42 -222 132 -260 281 -36 142 -37 220 -34 3079 l4
2800 21 94 c12 52 34 117 48 146 49 101 166 180 311 210 81 17 263 35 350 35
33 0 65 5 72 12 17 17 15 93 -3 108 -17 14 -143 13 -1039 -11 -385 -10 -551
-10 -845 0 -201 6 -506 15 -678 18 -275 5 -313 4 -318 -9z"/>
<path d="M22040 8106 c-237 -54 -410 -188 -516 -398 -124 -246 -114 -612 23
-848 49 -83 180 -214 263 -263 138 -80 339 -118 509 -98 279 34 481 172 597
406 64 129 85 222 89 382 4 176 -29 319 -103 457 -37 67 -54 89 -139 172 -79
78 -206 150 -318 180 -79 22 -329 28 -405 10z m350 -192 c274 -77 426 -351
390 -699 -29 -282 -182 -469 -425 -520 -328 -69 -609 105 -679 422 -20 91 -21
284 -1 378 41 195 183 359 355 414 102 32 254 34 360 5z"/>
<path d="M38836 8104 c-306 -66 -516 -269 -586 -567 -66 -282 -11 -562 149
-762 162 -201 475 -313 776 -276 157 19 262 55 393 134 l52 31 0 308 0 308
-245 0 -245 0 0 -75 c0 -63 3 -76 19 -85 11 -5 76 -10 145 -10 l126 0 0 -175
0 -174 -32 -17 c-131 -68 -340 -93 -490 -60 -227 50 -378 200 -434 431 -24 94
-24 296 -1 385 45 171 150 307 288 373 101 47 165 61 289 60 156 -1 234 -23
383 -107 63 -36 69 -37 91 -23 12 9 38 39 56 67 l34 53 -35 28 c-90 74 -207
128 -331 153 -97 20 -308 20 -402 0z"/>
<path d="M1610 8015 l0 -95 260 0 260 0 0 -705 0 -705 105 0 105 0 0 705 0
705 258 2 257 3 0 90 0 90 -622 3 -623 2 0 -95z"/>
<path d="M3620 7310 l0 -800 105 0 105 0 2 363 3 362 430 0 430 0 3 -362 2
-363 105 0 105 0 0 800 0 800 -105 0 -105 0 -2 -357 -3 -358 -430 0 -430 0 -3
358 -2 357 -105 0 -105 0 0 -800z"/>
<path d="M5850 7310 l0 -800 490 0 490 0 0 90 0 90 -385 0 -385 0 0 270 0 270
310 0 310 0 0 85 0 85 -310 0 -310 0 0 265 0 265 385 0 385 0 0 90 0 90 -490
0 -490 0 0 -800z"/>
<path d="M8757 8103 c-4 -3 -7 -363 -7 -800 l0 -793 110 0 110 0 0 345 0 345
325 0 325 0 0 85 0 85 -325 0 -325 0 0 280 0 280 380 0 380 0 0 90 0 90 -483
0 c-266 0 -487 -3 -490 -7z"/>
<path d="M10522 7543 c3 -563 4 -569 26 -633 88 -247 288 -398 552 -416 270
-19 504 103 610 319 76 156 75 145 75 752 l0 540 -105 0 -105 0 -5 -550 c-5
-543 -5 -551 -28 -606 -12 -31 -36 -77 -53 -103 -105 -158 -346 -211 -537
-118 -63 31 -146 115 -173 177 -44 100 -49 157 -49 590 0 226 0 456 0 513 l0
102 -105 0 -106 0 3 -567z"/>
<path d="M12530 8015 l0 -95 260 0 260 0 0 -705 0 -705 105 0 105 0 0 705 0
705 260 0 260 0 0 95 0 95 -625 0 -625 0 0 -95z"/>
<path d="M14527 8103 c-4 -4 -7 -243 -7 -532 1 -429 4 -538 16 -590 69 -296
275 -468 583 -488 210 -13 428 77 536 222 45 60 86 141 111 215 17 50 19 105
22 618 l3 562 -105 0 -105 0 -4 -537 c-4 -576 -4 -579 -56 -681 -134 -262
-551 -283 -708 -36 -69 109 -67 91 -73 699 l-5 550 -101 3 c-55 1 -103 -1
-107 -5z"/>
<path d="M16708 8105 c-5 -5 -8 -365 -8 -802 l0 -793 110 0 110 0 0 336 0 337
110 -5 c98 -4 113 -7 135 -28 14 -13 124 -160 245 -326 250 -343 218 -317 377
-312 l92 3 -234 319 c-129 176 -246 332 -260 346 -30 31 -31 40 -7 40 10 0 55
18 101 40 214 104 305 318 238 557 -36 125 -168 229 -342 268 -77 17 -653 34
-667 20z m516 -175 c150 -15 228 -58 279 -155 17 -32 21 -58 21 -125 0 -100
-20 -156 -79 -215 -78 -77 -183 -105 -397 -105 l-128 0 0 305 0 305 103 0 c56
0 146 -5 201 -10z"/>
<path d="M18630 7310 l0 -800 490 0 490 0 0 90 0 90 -385 0 -385 0 0 270 0
270 310 0 310 0 0 85 0 85 -310 0 -310 0 0 265 0 265 385 0 385 0 0 90 0 90
-490 0 -490 0 0 -800z"/>
<path d="M23847 8103 c-4 -3 -7 -363 -7 -800 l0 -793 110 0 110 0 0 345 0 345
325 0 325 0 0 85 0 85 -325 0 -325 0 0 280 0 280 380 0 380 0 0 90 0 90 -483
0 c-266 0 -487 -3 -490 -7z"/>
<path d="M26728 8104 c-5 -4 -8 -365 -8 -801 l0 -795 358 5 c301 3 366 7 416
21 227 67 347 214 348 426 0 179 -89 295 -267 349 -22 7 -47 15 -55 17 -9 3
11 17 49 36 57 27 129 87 171 143 26 34 50 125 50 189 0 164 -73 281 -215 348
-112 52 -171 59 -520 65 -176 3 -323 2 -327 -3z m569 -173 c166 -17 248 -76
273 -198 21 -99 -8 -203 -73 -259 -72 -64 -128 -77 -354 -82 l-203 -4 0 276 0
276 133 0 c72 0 174 -5 224 -9z m149 -715 c121 -38 184 -124 184 -250 -1 -150
-86 -246 -245 -275 -32 -6 -146 -11 -252 -11 l-193 0 0 281 0 281 228 -5 c170
-3 240 -8 278 -21z"/>
<path d="M29120 8088 c-6 -13 -149 -372 -319 -798 l-308 -775 90 -3 c75 -2 95
0 115 15 17 13 47 76 102 218 l77 200 359 0 358 0 78 -200 c47 -121 86 -207
99 -217 17 -14 40 -18 115 -18 52 0 94 3 94 8 -1 4 -144 363 -318 797 l-317
790 -108 3 c-103 3 -107 2 -117 -20z m130 -236 c0 -8 63 -177 140 -377 77
-200 140 -367 140 -370 0 -3 -133 -5 -295 -5 -162 0 -295 2 -295 4 0 2 58 154
129 337 71 184 137 360 147 392 11 37 21 53 26 45 4 -7 8 -19 8 -26z"/>
<path d="M30728 8104 c-5 -4 -8 -364 -8 -801 l0 -793 95 0 95 0 2 615 3 615
465 -606 c256 -333 473 -610 482 -615 9 -5 46 -9 82 -9 l66 0 0 800 0 801 -92
-3 -93 -3 0 -615 0 -616 -453 591 c-249 324 -464 601 -478 615 -20 20 -36 25
-91 28 -38 2 -71 0 -75 -4z"/>
<path d="M32950 7310 l0 -800 105 0 105 0 0 365 0 365 75 0 c41 0 86 -5 100
-12 21 -9 339 -366 580 -651 22 -25 51 -51 65 -57 15 -6 72 -9 131 -8 l105 3
-327 390 c-180 215 -344 402 -364 417 -36 26 -36 27 -15 40 22 13 652 721 659
740 5 15 -208 6 -236 -10 -12 -7 -153 -160 -313 -341 -164 -186 -300 -331
-313 -335 -12 -3 -50 -6 -84 -6 l-63 0 0 350 0 350 -105 0 -105 0 0 -800z"/>
<path d="M34950 7310 l0 -800 105 0 105 0 0 800 0 800 -105 0 -105 0 0 -800z"/>
<path d="M36100 7310 l0 -800 95 0 96 0 -3 615 c-3 570 -2 613 13 597 9 -9
211 -271 449 -582 237 -311 447 -580 466 -597 31 -31 38 -33 104 -33 l70 0 0
800 0 800 -95 0 -95 0 -2 -614 -3 -615 -468 608 c-511 665 -470 621 -578 621
l-49 0 0 -800z"/>
</g>
</svg>
